
<svg width="74px" height="100px" viewBox="0 0 74 100" version="1.1" xmlns="http://www.w3.org/2000/svg" xmlns:xlink="http://www.w3.org/1999/xlink">
    <!-- Generator: Sketch 49.2 (51160) - http://www.bohemiancoding.com/sketch -->
    <desc>Created with Sketch.</desc>
    <defs>
        <filter x="-28.4%" y="-21.0%" width="156.8%" height="142.0%" filterUnits="objectBoundingBox" id="filter-1">
            <feOffset dx="0" dy="0" in="SourceAlpha" result="shadowOffsetOuter1"></feOffset>
            <feGaussianBlur stdDeviation="7" in="shadowOffsetOuter1" result="shadowBlurOuter1"></feGaussianBlur>
            <feComposite in="shadowBlurOuter1" in2="SourceAlpha" operator="out" result="shadowBlurOuter1"></feComposite>
            <feColorMatrix values="0 0 0 0 0.184313725   0 0 0 0 0.188235294   0 0 0 0 0.380392157  0 0 0 0.1 0" type="matrix" in="shadowBlurOuter1" result="shadowMatrixOuter1"></feColorMatrix>
            <feMerge>
                <feMergeNode in="shadowMatrixOuter1"></feMergeNode>
                <feMergeNode in="SourceGraphic"></feMergeNode>
            </feMerge>
        </filter>
    </defs>
    <g id="Page-1" stroke="none" stroke-width="1" fill="none" fill-rule="evenodd">
        <g id="Artboard" fill-rule="nonzero">
            <g id="NaNo-Shield-Logo" filter="url(#filter-1)" transform="translate(37.000000, 50.000000) rotate(-360.000000) translate(-37.000000, -50.000000) ">
                <path d="M25.5023923,26.9215686 L24.3057416,26.9215686 C21.165311,26.9296386 18.044537,26.426315 15.0660287,25.4313725 C14.1934548,25.1705918 13.3355897,24.8629554 12.4961722,24.5098039 L11.8684211,24.1764706 L11.7114833,24.1764706 L11.7703349,24.1764706 C10.9786404,23.723116 9.98989693,23.8009326 9.27894737,24.372549 L0.490430622,31.9215686 C-0.062658575,32.3628736 -0.158765326,33.1662911 0.274641148,33.7254902 L0.451196172,33.9803922 C3.26879698,38.1903616 4.83338049,43.113043 4.96315789,48.1764706 C4.9512376,51.8231204 4.38232139,55.4465737 3.27607656,58.9215686 C1.65417765,63.3199649 0.785395713,67.960091 0.706220096,72.6470588 C0.706220096,73.3529412 0.706220096,74.0588235 0.706220096,74.7254902 C1.57702845,80.871484 4.93987422,86.3884519 10.0047847,89.9803922 C12.1508376,91.5070541 14.5573052,92.6299782 17.1062201,93.2941176 C19.2248804,93.8431373 21.0296651,93.9803922 22.8148325,94.3529412 C25.7250949,94.9225117 28.5901886,95.7023357 31.3875598,96.6862745 C32.3812503,97.0266844 33.3511762,97.4328104 34.2909091,97.9019608 C34.7129542,98.0973059 35.10314,98.355102 35.4483254,98.6666667 C35.8350899,99.1438817 36.4232125,99.4124018 37.0373206,99.3921569 C37.6514286,99.4124018 38.2395513,99.1438817 38.6263158,98.6666667 C38.9672431,98.349652 39.3583388,98.0912547 39.7837321,97.9019608 C43.4150763,96.2846961 47.2289444,95.1127723 51.1421053,94.4117647 C52.94689,94.0392157 54.7320574,93.9019608 56.8311005,93.3529412 C59.3862783,92.689376 61.7992858,91.566502 63.9521531,90.0392157 C69.0170636,86.4472754 72.3799094,80.9303075 73.2507177,74.7843137 C73.2507177,74.1176471 73.2507177,73.4117647 73.2507177,72.7058824 C73.1884267,68.0189842 72.3259543,63.3771234 70.7004785,58.9803922 C69.586028,55.5073387 69.0169113,51.8826082 69.0133971,48.2352941 C69.0596475,44.6549337 69.8688524,41.1255463 71.3870813,37.8823529 C71.8614517,36.837772 72.3986379,35.8228447 72.9956938,34.8431373 C73.1586713,34.5664687 73.335449,34.2981568 73.5253589,34.0392157 L73.7019139,33.7843137 C74.1308578,33.2200154 74.0259147,32.4158367 73.4665072,31.9803922 L64.7760766,24.2745098 C64.065127,23.7028934 63.0763835,23.6250768 62.284689,24.0784314 C58.4021459,26.043797 54.1009486,27.039529 49.7492823,26.9803922 L25.5023923,26.9803922 L25.5023923,26.9215686 Z" id="Shape" fill="#54301A"></path>
                <path d="M48.4545455,29.9411765 L49.7885167,29.9411765 C54.3834114,29.9800734 58.9329054,29.0304864 63.1282297,27.1568627 L69.8961722,33.1568627 C67.0238104,37.6415086 65.4486545,42.8329655 65.3449761,48.1568627 C65.3559714,52.1588392 66.0185402,56.1323509 67.3066986,59.9215686 C68.784441,64.0252881 69.5732268,68.344972 69.6411483,72.7058824 C69.6411483,73.3529412 69.6411483,73.9803922 69.6411483,74.6666667 C68.8677535,79.9455692 65.9961215,84.6892724 61.676555,87.8235294 C59.8981433,89.0886198 57.9037837,90.0188758 55.7913876,90.5686275 C54.1239234,91 52.4368421,91.1568627 50.337799,91.5686275 C47.2365285,92.125721 44.1809205,92.9121966 41.1961722,93.9215686 C40.0275891,94.3217555 38.8872227,94.7999563 37.7827751,95.3529412 L37.0569378,95.7647059 L36.3114833,95.3529412 C32.3320034,93.5321614 28.1407769,92.214796 23.8349282,91.4313725 C21.7358852,91.0196078 20.0488038,90.8627451 18.3813397,90.4313725 C16.2689435,89.8816209 14.274584,88.9513649 12.4961722,87.6862745 C8.18808975,84.5556971 5.31286447,79.8318499 4.51196172,74.5686275 C4.51196172,73.9803922 4.51196172,73.3529412 4.51196172,72.6078431 C4.5847389,68.2456888 5.38020233,63.9257378 6.86602871,59.8235294 C8.15418711,56.0343117 8.81675592,52.0608 8.8277512,48.0588235 C8.71496938,42.7363703 7.14054446,37.5473226 4.27655502,33.0588235 L11.0444976,27.0588235 C15.2398219,28.9324472 19.7893159,29.8820342 24.3842105,29.8431373 L48.4545455,29.8431373 L48.4545455,29.9411765 Z" id="Shape" fill="#A3DCE6"></path>
                <path d="M36.54689,34.8039216 L36.54689,61.0784314 L10.3578947,61.0784314 C10.108706,61.0784314 9.90669856,61.2803422 9.90669856,61.5294118 C9.90134449,61.652379 9.94650681,61.7721907 10.0317098,61.8610556 C10.1169127,61.9499205 10.2347523,62.0001164 10.3578947,62 L36.54689,62 L36.54689,91.1764706 C36.54689,91.4363693 36.7576803,91.6470588 37.0177033,91.6470588 C37.2777264,91.6470588 37.4885167,91.4363693 37.4885167,91.1764706 L37.4885167,62 L63.677512,62 C63.9298435,61.9894822 64.1289275,61.7818418 64.1287081,61.5294118 C64.1287081,61.2803422 63.9267007,61.0784314 63.677512,61.0784314 L37.4885167,61.0784314 L37.4885167,34.8039216 L36.54689,34.8039216 Z" id="Shape" fill="#54301A"></path>
                <path d="M22.5990431,40.4509804 C22.5221035,40.3804209 22.4783036,40.2808386 22.4783036,40.1764706 C22.4783036,40.0721026 22.5221035,39.9725203 22.5990431,39.9019608 C22.8797861,39.5351173 23.0376687,39.0891409 23.0502392,38.627451 C23.0521302,38.1784407 22.8997836,37.742384 22.6186603,37.3921569 C22.2118094,36.8940259 21.9900027,36.2704929 21.9909091,35.627451 C21.9867136,34.9838487 22.2089047,34.3592352 22.6186603,33.8627451 C22.7778522,33.7108616 23.0283679,33.7108616 23.1875598,33.8627451 C23.3395159,34.0218609 23.3395159,34.2722567 23.1875598,34.4313725 C22.9043953,34.7969001 22.7462236,35.2436933 22.7363636,35.7058824 C22.7448002,36.1531033 22.8960162,36.5859239 23.1679426,36.9411765 C23.5692364,37.4424193 23.790325,38.0639335 23.7956938,38.7058824 C23.7998893,39.3494846 23.5776982,39.9740982 23.1679426,40.4705882 C23.0814116,40.5642268 22.9617907,40.6204921 22.8344498,40.627451 C22.7397237,40.6303011 22.6478272,40.5949732 22.5794258,40.5294118 L22.5990431,40.4509804 Z" id="Shape" fill="#54301A"></path>
                <path d="M20.6373206,40.4509804 C20.560381,40.3804209 20.5165811,40.2808386 20.5165811,40.1764706 C20.5165811,40.0721026 20.560381,39.9725203 20.6373206,39.9019608 C20.9180636,39.5351173 21.0759462,39.0891409 21.0885167,38.627451 C21.0904078,38.1784407 20.9380611,37.742384 20.6569378,37.3921569 C20.2556949,36.8921664 20.0407262,36.2683622 20.0488038,35.627451 C20.0359015,34.9824069 20.2591363,34.3548593 20.676555,33.8627451 C20.8291156,33.7132773 21.0732767,33.7132773 21.2258373,33.8627451 C21.3777935,34.0218609 21.3777935,34.2722567 21.2258373,34.4313725 C20.92903,34.7893119 20.7691197,35.2410163 20.7746411,35.7058824 C20.7772079,36.1481652 20.9293022,36.5765897 21.2062201,36.9215686 C21.6075139,37.4228114 21.8286025,38.0443257 21.8339713,38.6862745 C21.8256071,39.3276904 21.6048543,39.9482608 21.2062201,40.4509804 C21.1302211,40.547421 21.0151333,40.6049374 20.8923445,40.6078431 C20.7976184,40.6106932 20.7057219,40.5753654 20.6373206,40.5098039 L20.6373206,40.4509804 Z" id="Shape" fill="#54301A"></path>
                <path d="M18.6755981,40.4705882 C18.523642,40.3114724 18.523642,40.0610766 18.6755981,39.9019608 C18.9652409,39.5399996 19.1242149,39.0909399 19.1267943,38.627451 C19.1232152,38.2237885 19.0222744,37.8269447 18.8325359,37.4705882 L18.6755981,37.3529412 C18.2769639,36.8502216 18.0562111,36.2296512 18.0478469,35.5882353 C18.0562111,34.9468194 18.2769639,34.326249 18.6755981,33.8235294 C18.83479,33.6716459 19.0853057,33.6716459 19.2444976,33.8235294 C19.3964537,33.9826452 19.3964537,34.233041 19.2444976,34.3921569 C18.9476903,34.7500962 18.7877799,35.2018006 18.7933014,35.6666667 C18.796255,36.0729047 18.9043889,36.4714579 19.107177,36.8235294 L19.2444976,36.9411765 C19.6457915,37.4424193 19.86688,38.0639335 19.8722488,38.7058824 C19.8638846,39.3472983 19.6431318,39.9678686 19.2444976,40.4705882 C19.1684986,40.5670289 19.0534109,40.6245452 18.930622,40.627451 C18.8475549,40.6531281 18.7586652,40.6531281 18.6755981,40.627451 L18.6755981,40.4705882 Z" id="Shape" fill="#54301A"></path>
                <path d="M61.1861244,56.0196078 C61.1861244,56.3333333 60.7349282,56.5882353 60.1660287,56.5882353 L43.0401914,56.5882353 C42.4712919,56.5882353 42.0004785,56.3333333 42.0004785,56.0196078 L42.0004785,57.0980392 C42.0004785,57.4117647 42.4712919,57.6666667 43.0401914,57.6666667 L60.1660287,57.6666667 C60.7349282,57.6666667 61.1861244,57.4117647 61.1861244,57.0980392 L61.1861244,56.0196078 Z" id="Shape" fill="#54301A"></path>
                <path d="M59.4401914,50.1372549 C59.4401914,49.8235294 59.0674641,49.5490196 58.5966507,49.5490196 L44.6095694,49.5490196 C44.138756,49.5490196 43.7660287,49.8235294 43.7660287,50.1372549 L42.0004785,55.6470588 C42.0004785,55.9607843 42.4712919,56.2156863 43.0401914,56.2156863 L60.1660287,56.2156863 C60.7349282,56.2156863 61.1861244,55.9607843 61.1861244,55.6470588 L59.4401914,50.1372549 Z" id="Shape" fill="#54301A"></path>
                <polygon id="Shape" fill="#FFFFFF" points="58.792823 52.2941176 59.0478469 53.254902 55.9287081 53.254902 55.8110048 52.2941176"></polygon>
                <polygon id="Shape" fill="#FFFFFF" points="58.3220096 50.5686275 58.5966507 51.5294118 57.0665072 51.5294118 56.8899522 50.5686275"></polygon>
                <polygon id="Shape" fill="#FFFFFF" points="54.3397129 50.5686275 54.437799 51.5294118 53.3784689 51.5294118 53.3588517 50.5686275"></polygon>
                <polygon id="Shape" fill="#FFFFFF" points="53.1430622 53.254902 51.9856459 53.254902 52.0052632 52.2941176 53.1038278 52.2941176"></polygon>
                <polygon id="Shape" fill="#FFFFFF" points="51.5933014 50.5686275 52.5741627 50.5686275 52.5937799 51.5294118 51.554067 51.5294118"></polygon>
                <polygon id="Shape" fill="#FFFFFF" points="49.808134 50.5686275 50.8086124 50.5686275 50.7497608 51.5294118 49.6904306 51.5294118"></polygon>
                <polygon id="Shape" fill="#FFFFFF" points="51.2009569 52.2941176 51.1617225 53.254902 50.0043062 53.254902 50.1023923 52.2941176"></polygon>
                <polygon id="Shape" fill="#FFFFFF" points="48.062201 50.5686275 49.023445 50.5686275 48.9057416 51.5294118 47.8660287 51.5294118"></polygon>
                <polygon id="Shape" fill="#FFFFFF" points="49.2980861 52.2941176 49.2 53.254902 48.0425837 53.254902 48.1995215 52.2941176"></polygon>
                <polygon id="Shape" fill="#FFFFFF" points="46.2966507 50.5686275 47.2578947 50.5686275 47.0617225 51.5294118 46.0220096 51.5294118"></polygon>
                <polygon id="Shape" fill="#FFFFFF" points="47.3952153 52.2941176 47.2186603 53.254902 46.061244 53.254902 46.3162679 52.2941176"></polygon>
                <polygon id="Shape" fill="#FFFFFF" points="44.9626794 50.5686275 45.4923445 50.5686275 45.2177033 51.5294118 44.6488038 51.5294118"></polygon>
                <polygon id="Shape" fill="#FFFFFF" points="44.4330144 52.2941176 45.4923445 52.2941176 45.2373206 53.254902 44.0995215 53.254902"></polygon>
                <polygon id="Shape" fill="#FFFFFF" points="44.2172249 55.0588235 43.4717703 55.0588235 43.8052632 54.0980392 44.491866 54.0980392"></polygon>
                <polygon id="Shape" fill="#FFFFFF" points="46.3358852 55.0588235 45.0607656 55.0588235 45.3354067 54.0980392 46.5320574 54.0980392"></polygon>
                <polygon id="Shape" fill="#FFFFFF" points="47.1598086 55.0588235 47.3559809 54.0980392 54.692823 54.0980392 54.7909091 55.0588235"></polygon>
                <polygon id="Shape" fill="#FFFFFF" points="53.9473684 53.254902 53.908134 52.2941176 54.9870813 52.2941176 55.1047847 53.254902"></polygon>
                <polygon id="Shape" fill="#FFFFFF" points="55.1244019 50.5686275 56.1052632 50.5686275 56.262201 51.5294118 55.222488 51.5294118"></polygon>
                <polygon id="Shape" fill="#FFFFFF" points="55.6148325 55.0588235 55.5167464 54.0980392 56.7133971 54.0980392 56.8899522 55.0588235"></polygon>
                <polygon id="Shape" fill="#FFFFFF" points="57.7334928 55.0588235 57.5373206 54.0980392 59.2832536 54.0980392 59.5578947 55.0588235"></polygon>
                <path d="M57.3215311,37.0784314 L45.884689,37.0784314 C44.8987682,37.0784314 44.0995215,37.8772958 44.0995215,38.8627451 L44.0995215,47.3333333 C44.0995215,48.3187826 44.8987682,49.1176471 45.884689,49.1176471 L57.3215311,49.1176471 C58.3074519,49.1176471 59.1066986,48.3187826 59.1066986,47.3333333 L59.1066986,38.8627451 C59.1066986,37.8772958 58.3074519,37.0784314 57.3215311,37.0784314 Z" id="Shape" fill="#54301A"></path>
                <rect id="Rectangle-path" fill="#FFFFFF" x="45.1980861" y="38.1960784" width="12.8100478" height="9.82352941" rx="0.35"></rect>
                <path d="M46.5712919,40.0588235 C46.4655838,40.0645475 46.3624274,40.0250726 46.2875709,39.950252 C46.2127144,39.8754313 46.1732206,39.7723241 46.1789474,39.6666667 C46.17357,39.5593064 46.2125198,39.4544465 46.2866896,39.3766055 C46.3608593,39.2987645 46.4637458,39.2547675 46.5712919,39.254902 L56.615311,39.254902 C56.8428312,39.254902 57.0272727,39.4392553 57.0272727,39.6666667 C57.0274072,39.7741613 56.9833892,39.8769986 56.9055109,39.9511328 C56.8276327,40.0252671 56.7227226,40.0641983 56.615311,40.0588235 L46.5712919,40.0588235 Z" id="Shape" fill="#54301A"></path>
                <path d="M46.5712919,41.8039216 C46.3514671,41.793447 46.1786977,41.6121259 46.1789474,41.3921569 C46.17357,41.2847966 46.2125198,41.1799367 46.2866896,41.1020957 C46.3608593,41.0242547 46.4637458,40.9802577 46.5712919,40.9803922 L53.2215311,40.9803922 C53.4490513,40.9803922 53.6334928,41.1647455 53.6334928,41.3921569 C53.623555,41.6153244 53.4448054,41.7939885 53.2215311,41.8039216 L46.5712919,41.8039216 Z" id="Shape" fill="#54301A"></path>
                <path d="M46.5712919,43.5294118 C46.3514671,43.5189372 46.1786977,43.3376161 46.1789474,43.1176471 C46.1786977,42.897678 46.3514671,42.7163569 46.5712919,42.7058824 L55.1244019,42.7058824 C55.3442267,42.7163569 55.5169961,42.897678 55.5167464,43.1176471 C55.5169961,43.3376161 55.3442267,43.5189372 55.1244019,43.5294118 L46.5712919,43.5294118 Z" id="Shape" fill="#54301A"></path>
                <path d="M46.5712919,45.254902 C46.4637458,45.2550364 46.3608593,45.2110394 46.2866896,45.1331984 C46.2125198,45.0553574 46.17357,44.9504975 46.1789474,44.8431373 C46.1789474,44.626555 46.354606,44.4509804 46.5712919,44.4509804 L51.730622,44.4509804 C51.8380336,44.4456056 51.9429437,44.4845368 52.020822,44.5586711 C52.0987002,44.6328053 52.1427183,44.7356426 52.1425837,44.8431373 C52.1425837,45.0705486 51.9581422,45.254902 51.730622,45.254902 L46.5712919,45.254902 Z" id="Shape" fill="#54301A"></path>
                <path d="M46.5712919,46.9803922 C46.4637458,46.9805266 46.3608593,46.9365296 46.2866896,46.8586886 C46.2125198,46.7808476 46.17357,46.6759877 46.1789474,46.5686275 C46.1789474,46.3520452 46.354606,46.1764706 46.5712919,46.1764706 L54.9282297,46.1764706 C55.0356413,46.1710958 55.1405514,46.210027 55.2184296,46.2841613 C55.2963078,46.3582955 55.3403259,46.4611328 55.3401914,46.5686275 C55.3401914,46.6778342 55.2967884,46.7825682 55.2195306,46.8597891 C55.1422728,46.9370099 55.0374887,46.9803922 54.9282297,46.9803922 L46.5712919,46.9803922 Z" id="Shape" fill="#54301A"></path>
                <path d="M27.6995215,46.2352941 L27.4641148,46.2352941 L27.4641148,44.4509804 C27.2875598,42.4901961 24.423445,41.6862745 21.0885167,41.6078431 C17.7535885,41.5294118 14.8894737,42.5294118 14.6933014,44.4509804 L14.6933014,56.2156863 C14.8894737,58.1764706 17.7535885,58.9803922 21.0885167,59.0588235 C24.423445,59.1372549 27.2875598,58.1372549 27.4641148,56.2156863 L27.4641148,55.1764706 L27.7976077,55.1764706 C30.278661,55.1764706 32.2899522,53.1661413 32.2899522,50.6862745 C32.2899522,48.2064077 30.278661,46.1960784 27.7976077,46.1960784 L27.6995215,46.2352941 Z M27.4641148,49.0392157 L27.7976077,49.0392157 C28.7510255,49.0392157 29.5239234,49.811744 29.5239234,50.7647059 C29.5239234,51.7176678 28.7510255,52.4901961 27.7976077,52.4901961 L27.4641148,52.4901961 L27.4641148,49.0392157 Z" id="Shape" fill="#54301A"></path>
                <path d="M16.9492823,43.1568627 C18.2459691,42.6962828 19.6144414,42.4705265 20.9904306,42.4901961 C22.3664199,42.4705265 23.7348921,42.6962828 25.0315789,43.1568627 C26.0516746,43.5686275 26.522488,44.1176471 26.5028708,44.4509804 C26.5133505,44.4828208 26.5133505,44.5171792 26.5028708,44.5490196 L26.5028708,44.6862745 L26.3851675,44.8235294 L26.2282297,44.9607843 L26.0124402,45.0784314 L25.7574163,45.2156863 L26.0516746,45.0392157 C24.63866,44.2008233 23.0017131,43.8174544 21.3631579,43.9411765 C19.7246027,43.8174544 18.0876558,44.2008233 16.6746411,45.0392157 L16.3411483,44.8235294 L15.6937799,44.9803922 C15.6350462,44.9251295 15.5883053,44.8583887 15.5564593,44.7843137 C15.549681,44.7322456 15.549681,44.6795191 15.5564593,44.627451 C15.4583732,44.1176471 15.9291866,43.5686275 16.9492823,43.1568627 Z" id="Shape" fill="#FFFFFF"></path>
                <path d="M25.0315789,57.5490196 C23.7348921,58.0095995 22.3664199,58.2353559 20.9904306,58.2156863 C19.6144414,58.2353559 18.2459691,58.0095995 16.9492823,57.5490196 C15.9291866,57.1372549 15.4583732,56.5882353 15.4779904,56.254902 L15.4779904,45.9411765 L15.8703349,46.2156863 L16.0272727,46.2156863 L16.3803828,46.3921569 L16.5373206,46.3921569 C16.7092938,46.4692725 16.8862455,46.5347788 17.0669856,46.5882353 L17.184689,46.5882353 L17.6947368,46.7254902 L17.8712919,46.7254902 L18.4205742,46.8431373 L18.5382775,46.8431373 L19.2444976,46.8431373 L19.4210526,46.8431373 L20.0095694,46.8431373 L20.2057416,46.8431373 L20.9708134,46.8431373 L21.7358852,46.8431373 L21.9516746,46.8431373 L22.5009569,46.8431373 L22.7167464,46.8431373 L23.3837321,46.8431373 L23.5602871,46.8431373 L24.0311005,46.8431373 L24.2861244,46.8431373 L24.6980861,46.7254902 L24.8746411,46.7254902 L25.4043062,46.5294118 L25.561244,46.5294118 L25.9143541,46.3529412 L26.0516746,46.3529412 L26.4832536,46.0784314 L26.4832536,56.3921569 C26.522488,56.5882353 26.0516746,57.1372549 25.0315789,57.5490196 Z" id="Shape" fill="#FFFFFF"></path>
                <path d="M27.6995215,54.4117647 L27.4641148,54.4117647 L27.4641148,53.2352941 L27.7976077,53.2352941 C28.7017119,53.2352942 29.5371386,52.753191 29.9891907,51.9705883 C30.4412428,51.1879855 30.4412428,50.2237792 29.9891907,49.4411764 C29.5371386,48.6585737 28.7017119,48.1764705 27.7976077,48.1764706 L27.4641148,48.1764706 L27.4641148,47 L27.7976077,47 C29.834455,47 31.4856459,48.6504013 31.4856459,50.6862745 C31.4856459,52.7221477 29.834455,54.372549 27.7976077,54.372549 L27.6995215,54.4117647 Z" id="Shape" fill="#FFFFFF"></path>
                <path d="M30.3282297,67.9411765 C30.5030332,67.7228002 30.6058345,67.4556447 30.622488,67.1764706 C30.6232475,66.936151 30.5320043,66.7046444 30.3674641,66.5294118 L30.092823,66.2745098 C29.9223704,66.1025234 29.6874667,66.0100298 29.4454545,66.0196078 C29.1678171,66.0280091 28.8999798,66.1241098 28.6803828,66.2941176 C26.2465086,68.2710156 23.9278813,70.3855875 21.7358852,72.627451 C17.6555024,76.6470588 13.7320574,80.9215686 12.476555,83.4509804 C12.476555,83.4509804 12.476555,83.4509804 12.476555,83.5490196 L12.0842105,84.1372549 C12.0774993,84.1827607 12.0774993,84.229004 12.0842105,84.2745098 C12.0689404,84.3122404 12.0689404,84.3544262 12.0842105,84.3921569 L12.2607656,84.3921569 L12.8492823,84.0196078 L13.0258373,84.0196078 C16.9464252,81.3567642 20.5470369,78.2513237 23.7564593,74.7647059 C25.8555024,72.6666667 27.3464115,71.0392157 28.3665072,69.8627451 C28.49158,70.1367409 28.49158,70.4514944 28.3665072,70.7254902 C27.7800893,71.8559006 26.932798,72.8304917 25.8947368,73.5686275 C25.7525904,73.6000105 25.6053043,73.6000105 25.4631579,73.5686275 C25.3258373,73.5686275 25.2473684,73.6862745 25.0511962,73.8823529 C24.8550239,74.0784314 24.776555,74.4509804 24.9138756,74.5882353 C25.0511962,74.7254902 27.3660287,72.627451 27.3660287,72.627451 C28.5172556,71.5167839 29.2455668,70.0400591 29.4258373,68.4509804 L30.3282297,67.9411765 Z" id="Shape" fill="#54301A"></path>
                <path d="M12.2019139,68.6666667 C12.355571,70.2429621 13.0484344,71.7180554 14.1636364,72.8431373 C14.1636364,72.8431373 16.2822967,75.0784314 16.6157895,74.8039216 C16.9492823,74.5294118 16.6157895,74.2941176 16.4588517,74.0980392 C16.3019139,73.9019608 16.2038278,73.7647059 16.0665072,73.7843137 C15.9177284,73.8155169 15.7640897,73.8155169 15.615311,73.7843137 C14.5831893,73.0396579 13.7372467,72.0666182 13.1435407,70.9411765 C13.0280153,70.6651857 13.0280153,70.3544221 13.1435407,70.0784314 C14.1636364,71.254902 15.6545455,72.8823529 17.7535885,74.9803922 C21.6770335,79 26.0516746,83.0196078 28.4842105,84.2352941 L28.6607656,84.2352941 L29.2296651,84.6078431 L29.4258373,84.6078431 C29.4411074,84.5701125 29.4411074,84.5279267 29.4258373,84.4901961 C29.4374653,84.4451826 29.4374653,84.3979547 29.4258373,84.3529412 L29.05311,83.7647059 C29.05311,83.7647059 29.05311,83.7647059 29.05311,83.6666667 C27.8368421,81.1372549 23.815311,76.8627451 19.7937799,72.8431373 C17.6123108,70.5904111 15.2930168,68.4752312 12.8492823,66.5098039 C12.6370752,66.3400628 12.3754896,66.2437353 12.1038278,66.2352941 C11.9911669,66.2264189 11.8778589,66.2397429 11.7703349,66.2745098 L11.4956938,66.5294118 C11.3236251,66.6997828 11.2310872,66.9345742 11.2406699,67.1764706 C11.2472751,67.4577259 11.3512709,67.7279855 11.5349282,67.9411765 L12.2019139,68.6666667 Z" id="Shape" fill="#54301A"></path>
                <path d="M61.4411483,67 C61.3743732,66.9068287 61.2595312,66.8609138 61.14689,66.8823529 L57.8119617,67.5098039 C58.3541196,66.554285 58.7508191,65.5233595 58.9889952,64.4509804 C59.0343372,64.3650887 59.0343372,64.2623622 58.9889952,64.1764706 C58.9040209,64.1274341 58.7993283,64.1274341 58.7143541,64.1764706 L50.8674641,65.627451 C50.7096809,65.6570271 50.5996562,65.8008368 50.6124402,65.9607843 C50.6277603,66.1827427 50.6277603,66.4054926 50.6124402,66.627451 C50.6077314,67.0482716 50.568364,67.4679903 50.4947368,67.8823529 L43.4717703,69.2156863 C43.3788934,69.2304999 43.2986967,69.2887969 43.2559809,69.372549 C43.1970453,69.4545715 43.1970453,69.5650363 43.2559809,69.6470588 C43.4489779,70.0064435 43.7086177,70.3258475 44.0210526,70.5882353 L43.3933014,70.5882353 C43.2867788,70.6143189 43.203608,70.6974498 43.177512,70.8039216 C43.1205328,70.8936898 43.1205328,71.008271 43.177512,71.0980392 C43.3848379,71.3237347 43.6149256,71.5274293 43.8641148,71.7058824 L43.0598086,71.8431373 L42.9421053,71.8431373 L42.9421053,71.9803922 L42.9421053,82.627451 C42.9304773,82.6724645 42.9304773,82.7196924 42.9421053,82.7647059 C42.9804148,82.7767479 43.021499,82.7767479 43.0598086,82.7647059 L51.0047847,86.5490196 L51.1813397,86.5490196 L59.0282297,85.0980392 C59.0796983,85.111322 59.1336988,85.111322 59.1851675,85.0980392 C59.1957368,85.0462852 59.1957368,84.9929304 59.1851675,84.9411765 L59.1851675,74.1764706 C59.1967955,74.1314571 59.1967955,74.0842292 59.1851675,74.0392157 L59.0674641,73.9215686 L54.5947368,71.9607843 L55.3009569,71.8431373 C57.9297624,71.3439315 60.1889945,69.6773724 61.4411483,67.3137255 C61.5016066,67.2178802 61.5016066,67.0958453 61.4411483,67 Z" id="Shape" fill="#54301A"></path>
                <path d="M50.7301435,69.2745098 L50.8478469,69 L50.8478469,68.8039216 C50.8892693,68.7022746 50.9220799,68.5973308 50.945933,68.4901961 C50.945933,68.4901961 50.945933,68.3137255 50.945933,68.2156863 C51.0480727,67.6989943 51.1006237,67.1737353 51.1028708,66.6470588 C51.1028708,66.4705882 51.1028708,66.3137255 51.1028708,66.1960784 L58.1650718,64.8627451 C57.9969293,65.4763703 57.7736944,66.0735664 57.4980861,66.6470588 C57.3163404,67.0382971 57.0996739,67.4123603 56.8507177,67.7647059 L53.2215311,68.4509804 C53.1158869,68.4743039 53.0281271,68.547402 52.9861244,68.6470588 C52.9957655,68.751412 52.9957655,68.8564311 52.9861244,68.9607843 L52.6330144,69.627451 L52.4760766,69.9019608 L50.0043062,70.4509804 L50.1808612,70.2352941 L50.1808612,70.1176471 L50.7301435,69.2745098 Z" id="Shape" fill="#FFFFFF"></path>
                <path d="M44.8057416,71.5686275 C44.5818444,71.4302755 44.3657287,71.2797214 44.1583732,71.1176471 L44.7665072,71 C45.4724491,71.395351 46.2724731,71.5918731 47.0813397,71.5686275 L47.6894737,71.5686275 C47.9151872,71.5518707 48.1386412,71.5124565 48.3564593,71.4509804 L48.5722488,71.4509804 L48.6899522,71.4509804 L51.9856459,70.7254902 C51.2286189,71.5782826 50.2295218,72.1801901 49.1215311,72.4509804 L48.415311,72.4509804 L47.9052632,72.4509804 C46.8100762,72.4508534 45.7366506,72.1452771 44.8057416,71.5686275 Z" id="Shape" fill="#FFFFFF"></path>
                <path d="M50.3966507,68.4509804 L50.2789474,68.7843137 C50.2789474,68.7843137 50.2789474,68.7843137 50.2789474,68.7843137 C50.0627698,69.3864839 49.6738428,69.9116252 49.1607656,70.2941176 C48.9864961,70.4077997 48.8027174,70.5062055 48.6114833,70.5882353 L48.3956938,70.5882353 C48.1371591,70.6879446 47.8668193,70.7538496 47.5913876,70.7843137 L47.0813397,70.7843137 C46.8660669,70.8054223 46.6492441,70.8054223 46.4339713,70.7843137 L45.9827751,70.7843137 C45.4773934,70.6505911 45.0038456,70.4172636 44.5899522,70.0980392 C44.4251456,69.9628383 44.2740216,69.8117866 44.138756,69.6470588 L50.3966507,68.4509804 Z" id="Shape" fill="#FFFFFF"></path>
                <polygon id="Shape" fill="#FFFFFF" points="43.5110048 74.372549 51.0832536 77.6666667 51.2598086 77.6862745 58.6751196 76.2941176 58.6751196 77.4509804 51.2401914 78.8431373 43.5110048 75.4901961"></polygon>
                <polygon id="Shape" fill="#FFFFFF" points="43.5110048 79.7058824 51.0832536 83 51.2598086 83.0196078 58.6751196 81.627451 58.6751196 82.7843137 51.2401914 84.1960784 43.5110048 80.8235294"></polygon>
                <polygon id="Shape" fill="#FFFFFF" points="51.2401914 85.9607843 43.5110048 82.6078431 43.5110048 81.4901961 51.0832536 84.7843137 51.2598086 84.8039216 58.6751196 83.3921569 58.6751196 84.5686275"></polygon>
                <polygon id="Shape" fill="#FFFFFF" points="51.2401914 82.4117647 43.5110048 79.0392157 43.5110048 77.9215686 51.0832536 81.2156863 51.2598086 81.2352941 58.6751196 79.8431373 58.6751196 81"></polygon>
                <polygon id="Shape" fill="#FFFFFF" points="51.2401914 80.627451 43.5110048 77.254902 43.5110048 76.1372549 51.0832536 79.4509804 51.2598086 79.4509804 58.6751196 78.0588235 58.6751196 79.2352941"></polygon>
                <polygon id="Shape" fill="#FFFFFF" points="58.6751196 75.6666667 51.2401914 77.0784314 43.5110048 73.7058824 43.5110048 72.627451 51.0832536 75.9215686 51.2598086 75.9411765 58.6751196 74.5490196"></polygon>
                <path d="M57.9492823,74.0588235 L51.2401914,75.3333333 L44.2368421,72.2745098 L44.7076555,72.2745098 C45.6712938,72.7978043 46.7497444,73.0740251 47.8464115,73.0784314 L48.1406699,73.0784314 C48.4539411,73.1059639 48.7690254,73.1059639 49.0822967,73.0784314 L53.5354067,72.3333333 L57.9492823,74.0588235 Z" id="Shape" fill="#FFFFFF"></path>
                <path d="M59.577512,68.9019608 C58.4337337,70.1419759 56.9074453,70.9634305 55.2421053,71.2352941 L51.3186603,71.9019608 C51.8978927,71.4805446 52.4075688,70.9711123 52.8291866,70.3921569 C53.0014018,70.1469731 53.1586265,69.8916051 53.3,69.627451 L53.4177033,69.4117647 C53.4999548,69.2531025 53.57203,69.0893735 53.6334928,68.9215686 L54.3789474,68.7843137 L60.6172249,67.6470588 C60.3079958,68.0949145 59.960094,68.5148215 59.577512,68.9019608 Z" id="Shape" fill="#FFFFFF"></path>
                <path d="M25.8358852,25.5294118 C17.4991107,21.0695368 13.531703,11.3000363 16.4,2.29411765 C16.5551449,1.66158695 17.1686152,1.25280229 17.8124402,1.35294118 C18.5578947,1.35294118 18.8913876,1.92156863 18.8521531,2.78431373 C18.1106334,9.75483978 22.0117882,16.3915889 28.4645933,19.1372549" id="Shape" fill="#FFFFFF"></path>
                <path d="M25.8358852,25.9019608 C25.7719733,25.9216189 25.7036248,25.9216189 25.6397129,25.9019608 C17.1795233,21.3216292 13.1566511,11.388489 16.04689,2.21568627 C16.2240824,1.38971059 17.0171398,0.84689842 17.8516746,0.980392157 C18.754067,0.980392157 19.2641148,1.7254902 19.2248804,2.78431373 L19.2248804,3.05882353 C18.6002853,9.77611209 22.4025625,16.1234336 28.6215311,18.745098 C28.7961622,18.8401659 28.8720214,19.0507851 28.7980861,19.2352941 C28.7097792,19.4175857 28.4919464,19.495968 28.3076555,19.4117647 C21.7917064,16.6716468 17.8169895,10.0132071 18.4990431,2.98039216 L18.4990431,2.76470588 C18.4990431,1.78431373 18.0282297,1.74509804 17.8124402,1.7254902 C16.9688995,1.7254902 16.8119617,2.25490196 16.7923445,2.37254902 C14.0231205,11.2151913 17.8924631,20.7812811 26.0320574,25.2156863 C26.1683378,25.3022252 26.2333785,25.4666259 26.1931689,25.6229215 C26.1529594,25.779217 26.0166435,25.8918651 25.8555024,25.9019608 L25.8358852,25.9019608 Z" id="Shape" fill="#54301A"></path>
                <path d="M47.9052632,25.5098039 C56.2177893,21.0388527 60.1659105,11.2844896 57.3019139,2.29411765 C57.1381231,1.65870597 56.5184301,1.25143144 55.8698565,1.35294118 C55.1440191,1.35294118 54.8105263,1.92156863 54.8497608,2.78431373 C55.5853763,9.7215413 51.7227058,16.3310165 45.3157895,19.0980392" id="Shape" fill="#FFFFFF"></path>
                <path d="M47.9052632,25.8823529 C47.7762345,25.8852831 47.6558852,25.817619 47.5913876,25.7058824 C47.5344207,25.6240772 47.514715,25.5220105 47.5371375,25.4248925 C47.5595601,25.3277744 47.6220204,25.2446601 47.7090909,25.1960784 C55.8201104,20.7571593 59.6640981,11.209254 56.8899522,2.39215686 C56.7833189,1.95077938 56.3589587,1.66235244 55.9090909,1.7254902 C55.6933014,1.7254902 55.1832536,1.7254902 55.2028708,2.76470588 L55.2028708,2.94117647 C55.8694689,9.96564729 51.8984087,16.610023 45.3942584,19.3529412 C45.3065301,19.3991118 45.2034235,19.406291 45.1101379,19.3727242 C45.0168522,19.3391575 44.9419828,19.2679375 44.9038278,19.1764706 C44.8624078,19.0045653 44.9546482,18.8285544 45.1196172,18.7647059 C51.3163853,16.1272635 55.0874689,9.7790022 54.437799,3.07843137 L54.437799,2.78431373 C54.437799,1.7254902 54.9086124,1.05882353 55.8110048,0.980392157 C56.6469817,0.868313403 57.4301942,1.41289637 57.6157895,2.23529412 C60.4356364,11.3513199 56.4404313,21.1910597 48.062201,25.7647059 C48.0213369,25.8172248 47.9671474,25.8578475 47.9052632,25.8823529 Z" id="Shape" fill="#54301A"></path>
                <path d="M37.2727273,34.5686275 C37.2727273,34.5686275 48.1210526,35.0588235 48.4545455,29.0588235 C48.5457746,24.5685145 46.9578926,20.2056751 44.0014354,16.8235294 C42.3734536,14.6590115 39.8250074,13.3817693 37.1157895,13.372549 C34.4011133,13.3817288 31.8466794,14.6583349 30.2105263,16.8235294 C27.2540692,20.2056751 25.6661871,24.5685145 25.7574163,29.0588235 C26.0909091,35.0588235 36.9392344,34.5686275 36.9392344,34.5686275 L37.2727273,34.5686275 Z" id="Shape" fill="#A3DCE6"></path>
                <path d="M36.1545455,34.9411765 C33.7023923,34.9411765 25.6004785,34.5294118 25.2866029,29.0588235 C25.1812768,24.5049957 26.799684,20.0792632 29.8181818,16.6666667 C31.5236727,14.4107997 34.1888333,13.0848691 37.0177033,13.0848691 C39.8465734,13.0848691 42.511734,14.4107997 44.2172249,16.6666667 C47.2608063,20.1032293 48.8810948,24.5691609 48.7488038,29.1568627 C48.3956938,35.4117647 37.7631579,35.0392157 37.1942584,35.0392157 L36.1545455,35.0392157 L36.1545455,34.9411765 Z M37.1942584,34.1960784 C37.2923445,34.1960784 47.6894737,34.6078431 47.9837321,29.0392157 C48.1204825,24.6391918 46.5695276,20.3533083 43.6483254,17.0588235 C42.0847678,14.9767903 39.6320703,13.7516329 37.027512,13.7516329 C34.4229537,13.7516329 31.9702561,14.9767903 30.4066986,17.0588235 C27.4660458,20.3442061 25.9000236,24.6329143 26.0320574,29.0392157 C26.345933,34.6078431 36.723445,34.1960784 36.8215311,34.1960784 L37.1942584,34.1960784 Z" id="Shape" fill="#54301A"></path>
                <path d="M32.2703349,28.9803922 L31.9760766,28.9803922 C29.6913033,28.9738694 27.4669179,28.2464864 25.6200957,26.9019608 C25.5494128,26.8319933 25.5096457,26.736687 25.5096457,26.6372549 C25.5096457,26.5378228 25.5494128,26.4425165 25.6200957,26.372549 C25.6867012,26.3030338 25.7788217,26.2637235 25.8751196,26.2637235 C25.9714175,26.2637235 26.063538,26.3030338 26.1301435,26.372549 C26.7382775,27 28.2684211,27.8235294 32.015311,28.3333333 L32.1133971,28.3333333 C32.5645933,28.3333333 32.6822967,28.1960784 32.7803828,27.254902 L32.7803828,26.9803922 C32.8784689,26.254902 33.1138756,17.5098039 33.1138756,16.1372549 C33.102647,15.6890246 32.8667762,15.276448 32.4861244,15.0392157 C32.3774917,14.9586558 32.3201097,14.8262883 32.3355937,14.6919747 C32.3510776,14.557661 32.4370751,14.4418068 32.5611918,14.3880531 C32.6853084,14.3342994 32.8286879,14.3508126 32.9373206,14.4313725 C33.499872,14.8199343 33.8425678,15.4539826 33.8593301,16.1372549 C33.8593301,17.2745098 33.6435407,26.254902 33.5258373,27.0980392 L33.5258373,27.3333333 C33.4866029,27.9019608 33.3492823,28.9803922 32.2703349,28.9803922 Z" id="Shape" fill="#54301A"></path>
                <path d="M41.7650718,28.9803922 C40.6861244,28.9803922 40.5684211,27.9019608 40.4899522,27.2352941 L40.4899522,27 C40.3722488,26.1764706 40.1564593,17.372549 40.1564593,16.0392157 C40.1660431,15.3337904 40.5264651,14.6794594 41.1177033,14.2941176 C41.2708628,14.1656394 41.494209,14.1656394 41.6473684,14.2941176 C41.7060048,14.3734374 41.7287627,14.4736613 41.710129,14.57051 C41.6914954,14.6673588 41.63317,14.7519972 41.5492823,14.8039216 C41.150097,15.0471049 40.8995915,15.4742334 40.8822967,15.9411765 C40.8822967,17.3529412 41.1177033,26.0588235 41.2157895,26.7843137 L41.2157895,27.0588235 C41.3334928,28 41.4511962,28.1960784 41.8827751,28.1372549 C45.8062201,27.7058824 47.3755981,26.8039216 47.9248804,26.1764706 C47.9906285,26.0376604 48.1348611,25.9534027 48.28813,25.9642677 C48.4413989,25.9751328 48.5722904,26.0788936 48.61778,26.2255893 C48.6632696,26.3722849 48.6140339,26.531849 48.4937799,26.627451 C47.5913876,27.7843137 45.3942584,28.5882353 41.961244,28.9215686 L41.6669856,28.9215686 L41.7650718,28.9803922 Z" id="Shape" fill="#54301A"></path>
                <path d="M37.0177033,17.254902 C36.2768745,17.2997596 35.6380695,16.7399791 35.5856459,16 C35.7019652,15.2999838 36.3077583,14.7867521 37.0177033,14.7867521 C37.7276484,14.7867521 38.3334415,15.2999838 38.4497608,16 C38.3973372,16.7399791 37.7585322,17.2997596 37.0177033,17.254902 Z M37.0177033,15.4901961 C36.6449761,15.4901961 36.3311005,15.7254902 36.3311005,16 C36.3311005,16.2745098 36.6449761,16.5098039 37.0177033,16.5098039 C37.3904306,16.5098039 37.7043062,16.2941176 37.7043062,16 C37.7043062,15.7058824 37.3904306,15.4901961 37.0177033,15.4901961 Z" id="Shape" fill="#FFFFFF"></path>
                <path d="M37.0177033,24.7647059 C36.2267999,24.7647059 35.5856459,24.1238586 35.5856459,23.3333333 C35.5856459,22.5428081 36.2267999,21.9019608 37.0177033,21.9019608 C37.8086068,21.9019608 38.4497608,22.5428081 38.4497608,23.3333333 C38.4497608,24.1238586 37.8086068,24.7647059 37.0177033,24.7647059 Z M37.0177033,22.6470588 C36.8356049,22.6470588 36.6609648,22.7193625 36.5322018,22.848064 C36.4034388,22.9767654 36.3311005,23.151322 36.3311005,23.3333333 C36.3311005,23.7123523 36.6385031,24.0196078 37.0177033,24.0196078 C37.3969036,24.0196078 37.7043062,23.7123523 37.7043062,23.3333333 C37.7043062,22.9543144 37.3969036,22.6470588 37.0177033,22.6470588 Z" id="Shape" fill="#FFFFFF"></path>
                <path d="M36.1545455,34.9411765 C33.7023923,34.9411765 25.6004785,34.5294118 25.2866029,29.0588235 C25.1812768,24.5049957 26.799684,20.0792632 29.8181818,16.6666667 C31.5236727,14.4107997 34.1888333,13.0848691 37.0177033,13.0848691 C39.8465734,13.0848691 42.511734,14.4107997 44.2172249,16.6666667 C47.2608063,20.1032293 48.8810948,24.5691609 48.7488038,29.1568627 C48.3956938,35.4117647 37.7631579,35.0392157 37.1942584,35.0392157 L36.1545455,35.0392157 L36.1545455,34.9411765 Z M37.1942584,34.1960784 C37.2923445,34.1960784 47.6894737,34.6078431 47.9837321,29.0392157 C48.1204825,24.6391918 46.5695276,20.3533083 43.6483254,17.0588235 C42.0847678,14.9767903 39.6320703,13.7516329 37.027512,13.7516329 C34.4229537,13.7516329 31.9702561,14.9767903 30.4066986,17.0588235 C27.4660458,20.3442061 25.9000236,24.6329143 26.0320574,29.0392157 C26.345933,34.6078431 36.723445,34.1960784 36.8215311,34.1960784 L37.1942584,34.1960784 Z" id="Shape" fill="#54301A"></path>
                <path d="M37.0177033,33.0392157 C36.4367167,33.0391612 35.9133384,32.6882587 35.6928818,32.1509803 C35.4724253,31.6137019 35.5985847,30.9965355 36.0122277,30.5887539 C36.4258707,30.1809724 37.0450138,30.0633975 37.5794575,30.2911381 C38.1139012,30.5188786 38.4577195,31.0467967 38.4497608,31.627451 C38.4390306,32.4103083 37.8010087,33.0392891 37.0177033,33.0392157 Z M37.0177033,30.9215686 C36.7304133,30.9135891 36.4669407,31.0804205 36.3514236,31.3434582 C36.2359065,31.6064959 36.291389,31.9132675 36.49173,32.1192339 C36.6920709,32.3252004 36.9973049,32.3892741 37.2636175,32.2812661 C37.5299301,32.1732581 37.7041953,31.9147144 37.7043062,31.627451 C37.7044538,31.2451336 37.4000561,30.9321885 37.0177033,30.9215686 Z" id="Shape" fill="#FFFFFF"></path>
                <rect id="Rectangle-path" fill="#FFFFFF" transform="translate(22.948368, 73.666947) rotate(-45.160000) translate(-22.948368, -73.666947) " x="22.4483664" y="72.4133876" width="1" height="2.50980392"></rect>
                <path d="M12.9473684,83.4509804 C13.4001809,82.6451152 13.9185138,81.8778248 14.4971292,81.1568627 L15.4583732,82.1568627 C14.7613069,82.7339864 14.0127119,83.245938 13.2220096,83.6862745 L13.0650718,83.6862745 L12.9473684,83.4509804 Z" id="Shape" fill="#FFFFFF"></path>
                <rect id="Rectangle-path" fill="#FFFFFF" transform="translate(19.163211, 73.852760) rotate(-44.850000) translate(-19.163211, -73.852760) " x="17.9005825" y="73.352707" width="2.51100478" height="1"></rect>
                <path d="M28.8961722,83.5686275 L28.7588517,83.5686275 C27.9681494,83.1282909 27.2195544,82.6163393 26.522488,82.0392157 L27.4837321,81.0392157 C28.0623475,81.7601777 28.5806803,82.5274681 29.0334928,83.3333333 C29.0334928,83.3333333 28.9354067,83.5490196 28.8961722,83.5686275 Z" id="Shape" fill="#FFFFFF"></path>
            </g>
        </g>
    </g>
</svg>